<svg width="128" height="128" viewBox="0 0 128 128" fill="none" xmlns="http://www.w3.org/2000/svg">
<path d="M125.5 64C125.5 97.9655 97.9655 125.5 64 125.5C30.0345 125.5 2.5 97.9655 2.5 64C2.5 30.0345 30.0345 2.5 64 2.5C97.9655 2.5 125.5 30.0345 125.5 64Z" fill="white" stroke="black" stroke-width="5"/>
<path d="M64 87.75V47.151H62.234L60.469 42.658L59.506 51.644C59.506 51.644 55.333 52.125 52.606 50.2C49.877 48.274 47.31 46.509 47.31 40.251H15.697C15.697 40.251 29.979 46.189 29.979 67.21C29.979 67.21 59.025 63.197 64 87.75Z" fill="black"/>
<path d="M64 87.75V47.151H65.765L67.531 42.658L68.494 51.644C68.494 51.644 72.666 52.125 75.394 50.2C78.122 48.274 80.689 46.509 80.689 40.251H112.302C112.302 40.251 98.02 46.189 98.02 67.21C98.02 67.21 68.975 63.197 64 87.75Z" fill="black"/>
</svg>
