<svg width="150" height="135" viewBox="0 0 150 135" fill="none" xmlns="http://www.w3.org/2000/svg">
<path d="M110.36 44.4426C96.1621 44.4426 81.9643 38.4646 72.25 27.2558C60.2939 13.8052 40.118 10.8162 25.1729 21.2778L12.4696 29.4976C8.73334 31.7393 4.24981 30.9921 2.00805 28.003C-0.233713 24.2668 0.513542 19.7832 3.50256 17.5415L16.9531 8.57443C37.8763 -5.6234 66.2719 -1.88713 83.4588 17.5415C96.1621 31.7393 117.832 33.9811 132.778 22.025L138.008 18.2887C140.997 16.047 146.228 16.047 148.47 19.7832C150.712 22.7723 150.712 28.003 146.975 30.2448L142.492 33.2338C132.778 40.7064 121.569 44.4426 110.36 44.4426Z" fill="white"/>
<path d="M110.36 89.2781C96.1623 89.2781 81.9645 83.3001 72.2502 72.0912C60.2941 58.6407 40.1182 55.6516 25.1731 66.1132L11.7226 75.0803C7.9863 77.322 3.50277 76.5748 1.26101 72.8385C-0.980755 69.1022 0.513755 64.6187 3.50277 62.3769L16.9533 53.4099C37.8765 39.212 66.2721 42.9483 83.459 62.3769C96.1623 76.5748 117.833 78.8165 132.778 66.8605L138.009 63.1242C140.998 60.8824 146.228 60.8824 148.47 64.6187C150.712 67.6077 150.712 72.8385 146.976 75.0803L142.492 78.0693C132.778 85.5418 121.569 89.2781 110.36 89.2781Z" fill="white"/>
<path d="M110.36 134.113C96.1623 134.113 81.9645 128.135 72.2502 116.926C60.2941 103.476 40.1182 100.487 25.1731 110.948L11.7226 119.915C7.98628 122.157 3.50275 121.41 1.26099 117.673C-0.980772 113.937 -0.233516 109.454 3.50276 107.212L16.9533 98.2448C37.8765 84.047 66.2721 87.7833 83.459 107.212C96.1623 121.41 117.833 123.651 132.778 111.695L138.009 107.959C140.998 105.717 146.228 105.717 148.47 109.454C150.712 112.443 150.712 117.673 146.976 119.915L142.492 122.904C132.778 130.377 121.569 134.113 110.36 134.113Z" fill="white"/>
</svg>
