<svg width="150" height="150" viewBox="0 0 150 150" fill="none" xmlns="http://www.w3.org/2000/svg">
<path d="M75 121.875C49.1531 121.875 28.125 100.847 28.125 75C28.125 49.1531 49.1531 28.125 75 28.125C100.847 28.125 121.875 49.1531 121.875 75C121.875 100.847 100.847 121.875 75 121.875ZM75 37.5C54.3234 37.5 37.5 54.3234 37.5 75C37.5 95.6766 54.3234 112.5 75 112.5C95.6766 112.5 112.5 95.6766 112.5 75C112.5 54.3234 95.6766 37.5 75 37.5Z" fill="black"/>
<path d="M79.6875 0H70.3125V18.75H79.6875V0Z" fill="black"/>
<path d="M25.2853 18.6541L18.6562 25.2832L31.9144 38.5413L38.5434 31.9123L25.2853 18.6541Z" fill="black"/>
<path d="M18.75 70.3125H0V79.6875H18.75V70.3125Z" fill="black"/>
<path d="M31.9144 111.459L18.6562 124.717L25.2853 131.346L38.5434 118.088L31.9144 111.459Z" fill="black"/>
<path d="M79.6875 131.25H70.3125V150H79.6875V131.25Z" fill="black"/>
<path d="M118.092 111.462L111.463 118.091L124.722 131.349L131.351 124.72L118.092 111.462Z" fill="black"/>
<path d="M150 70.3125H131.25V79.6875H150V70.3125Z" fill="black"/>
<path d="M124.722 18.6513L111.463 31.9094L118.092 38.5385L131.351 25.2804L124.722 18.6513Z" fill="black"/>
</svg>
