<svg width="150" height="102" viewBox="0 0 150 102" fill="none" xmlns="http://www.w3.org/2000/svg">
<path d="M103.32 28.7826C104.573 27.9492 105.65 27.2039 106.756 26.502C114.734 21.4378 123.397 20.3883 132.408 22.669C147.736 26.5491 153.086 42.4267 148.307 54.6151C146.815 58.4228 144.395 61.9426 141.988 65.3027C139.338 69.0046 135.288 70.8745 130.95 72.0277C128.625 72.6457 126.255 73.1008 123.676 73.6809C123.411 74.6777 123.119 75.7078 122.861 76.747C121.484 82.3046 118.429 86.9386 114.752 91.2104C111.99 94.4155 108.273 96.1738 104.255 97.0021C98.7806 98.1293 93.2403 99.0318 87.687 99.6764C73.0294 101.379 58.2788 101.094 43.5563 101.373C36.7359 101.602 29.9191 100.817 23.3303 99.0435C11.4144 95.6713 4.22503 87.8495 1.29709 76.0578C-0.618849 68.5918 -0.408727 60.7405 1.90402 53.3876C5.76853 41.0588 14.4072 33.0835 25.8569 27.8104C27.7395 27.0144 29.2594 25.5495 30.1217 23.6994C36.5152 11.1263 46.6107 2.68732 60.6099 0.511035C74.5904 -1.66269 86.6027 3.13094 95.6891 14.265C98.5956 17.8476 100.838 21.9187 102.311 26.2873C102.586 27.093 102.947 27.8691 103.32 28.7826ZM48.6585 93.3225C51.5139 93.3225 54.3756 93.4591 57.2227 93.2988C69.0678 92.6303 80.9036 91.7733 92.7534 91.204C96.5993 91.0861 100.379 90.1688 103.849 88.5117C111.923 84.563 115.713 78.0257 115.026 69.1271C114.493 62.2284 110.175 56.9156 103.406 55.2919C94.9484 53.2624 87.2457 54.8559 80.6954 60.7687C78.9097 62.3803 77.339 64.227 75.6599 65.9559C73.9178 67.7508 72.3138 68.1732 70.7052 67.2879C69.1514 66.4328 68.4781 64.6918 69.1635 62.4376C70.1798 59.1043 69.6402 55.963 68.4235 52.8329C67.0136 49.2606 65.01 45.9514 62.4978 43.0434C54.7758 33.9671 40.9393 29.9952 30.1731 34.2889C15.8585 39.994 5.70236 52.0454 7.47144 69.6443C9.02341 85.0886 16.536 90.0764 27.6369 92.5117C27.9581 92.5822 28.287 92.6233 28.6101 92.6873C35.2458 93.995 41.9521 93.8194 48.6585 93.3225ZM76.8232 53.5916C76.9921 53.5582 77.1585 53.5093 77.3191 53.4464C77.6943 53.2226 78.0797 53.0099 78.4292 52.7509C84.9865 47.8868 92.3885 45.9913 100.472 46.6611C111.364 47.5586 119.308 53.0532 122.656 63.7353C122.871 64.4219 123.188 65.077 123.622 66.1591C126.035 65.2008 128.312 64.4553 130.449 63.4192C138.286 59.6199 141.953 53.2551 141.439 44.5884C141.011 37.3596 136.614 31.9219 129.55 30.2931C121.066 28.3347 113.394 30.0319 106.896 35.9916C105.125 37.6173 103.567 39.4745 101.876 41.1912C100.274 42.818 98.7052 43.1899 97.1653 42.3912C95.5805 41.5688 94.8437 39.7887 95.5265 37.5798C96.5929 34.1316 96.0456 30.886 94.705 27.677C94.2835 26.6681 93.8435 25.6641 93.3502 24.6891C84.7019 7.59998 64.4287 3.73948 51.5523 11.6119C46.8319 14.4298 42.6922 18.1186 39.3538 22.4812C38.9089 23.1944 38.5167 23.9388 38.1808 24.7092C57.9903 25.5149 70.7085 35.3217 76.8232 53.5916Z" fill="white"/>
</svg>
