<svg width="150" height="150" viewBox="0 0 150 150" fill="none" xmlns="http://www.w3.org/2000/svg">
<path d="M103.279 15.3074C104.969 15.3074 106.353 13.9242 106.353 12.2336V3.07377C106.353 1.3832 104.969 0 103.279 0C101.588 0 100.205 1.3832 100.205 3.07377V12.2336C100.205 13.9242 101.588 15.3074 103.279 15.3074Z" fill="white"/>
<path d="M128.392 24.6822C129.16 24.6822 129.959 24.3749 130.543 23.7908L136.66 17.7048C137.859 16.506 137.859 14.5695 136.66 13.3708C135.461 12.172 133.525 12.172 132.326 13.3708L126.209 19.4568C125.01 20.6556 125.01 22.5921 126.209 23.7908C126.824 24.3749 127.592 24.6822 128.392 24.6822Z" fill="white"/>
<path d="M130.512 69.6515C129.314 68.4527 127.377 68.4527 126.178 69.6515C124.98 70.8503 124.98 72.7868 126.178 73.9855L132.295 80.1023C132.91 80.6864 133.678 80.9937 134.478 80.9937C135.277 80.9937 136.076 80.7171 136.629 80.1023C137.828 78.9036 137.828 76.9671 136.629 75.7683L130.512 69.6515Z" fill="white"/>
<path d="M146.926 40.6045H137.767C136.076 40.6045 134.693 41.9877 134.693 43.6783C134.693 45.3688 136.076 46.752 137.767 46.752H146.926C148.617 46.752 150 45.3688 150 43.6783C150 41.9877 148.617 40.6045 146.926 40.6045Z" fill="white"/>
<path d="M75.9837 23.7908C76.5984 24.3749 77.3669 24.6822 78.1661 24.6822C78.9652 24.6822 79.7337 24.3749 80.3484 23.7908C81.5472 22.5921 81.5472 20.6556 80.3484 19.4568L74.2316 13.3708C73.0329 12.172 71.0964 12.172 69.8976 13.3708C68.6988 14.5695 68.6988 16.506 69.8976 17.7048L75.9837 23.7908Z" fill="white"/>
<path d="M28.1865 112.408C27.1722 112.408 26.25 112.9 25.666 113.729C24.0369 116.065 18.7808 123.996 18.7808 128.145C18.7808 133.217 22.9918 137.336 28.1865 137.336C33.3812 137.336 37.5922 133.217 37.5922 128.145C37.5922 123.996 32.3361 116.065 30.707 113.729C30.1537 112.9 29.2008 112.408 28.1865 112.408ZM28.1865 131.158C26.4344 131.158 24.9283 129.775 24.9283 128.145C24.9283 127.162 26.3115 124.334 28.1865 121.168C30.0615 124.303 31.4447 127.162 31.4447 128.145C31.4447 129.775 29.9693 131.158 28.1865 131.158Z" fill="white"/>
<path d="M78.1047 112.377C77.0903 112.408 76.1375 112.899 75.5842 113.76C74.0473 116.096 68.9756 124.027 68.9756 128.145C68.9756 133.125 73.1867 137.336 78.1662 137.336C83.3608 137.336 87.5719 133.217 87.5412 128.115C87.5412 123.965 82.285 116.035 80.6559 113.699C80.0719 112.869 79.119 112.377 78.1047 112.377ZM78.1969 131.219C76.5985 131.219 75.1539 129.774 75.1539 128.176C75.1539 127.193 76.4448 124.395 78.2276 121.26C80.0719 124.365 81.4244 127.162 81.4551 128.207C81.4551 129.836 79.9797 131.219 78.1969 131.219Z" fill="white"/>
<path d="M53.33 125.072C52.3464 125.072 51.3936 125.533 50.8095 126.363C49.1804 128.668 43.8936 136.414 43.8936 140.594C43.8936 145.789 48.1046 150 53.2993 150C58.3403 150 62.4591 145.789 62.4899 140.594C62.4899 136.445 57.4181 128.699 55.8505 126.424C55.2665 125.594 54.3444 125.072 53.33 125.072ZM53.2686 143.822C51.455 143.822 50.0104 142.377 50.0104 140.564C50.0411 139.611 51.3936 136.844 53.2378 133.801C55.0206 136.875 56.3116 139.611 56.3116 140.564C56.3116 142.316 54.8977 143.822 53.2686 143.822Z" fill="white"/>
<path d="M124.518 33.4735C121.475 28.494 116.773 24.744 111.27 22.9304C100.543 19.3649 88.6168 24.0985 82.8996 33.9653C78.5348 32.1825 73.7705 31.2296 68.7602 31.2296C61.5061 31.2296 54.4365 33.3198 48.3811 37.2849C43.0943 40.7276 38.791 45.3997 35.7787 50.9632C32.9508 50.1948 30.1844 50.0104 28.1865 50.0104C20.6557 50.0104 13.5861 52.8997 8.26844 58.1558C2.92008 63.412 0 70.4509 0 77.9817C0 93.535 12.6332 106.168 28.1865 106.168H68.791C88.5246 106.168 104.723 90.8915 106.23 71.5575C111.363 71.0657 116.219 68.8833 120.092 65.3485C124.365 61.4141 127.131 56.0657 127.93 50.2563C128.791 44.4161 127.592 38.4837 124.518 33.4735ZM68.791 99.9591H28.1865C16.0451 99.9591 6.14754 90.0616 6.14754 77.9202C6.14754 65.9017 16.0451 56.1272 28.1865 56.1272C31.1373 56.1272 33.9652 56.619 36.1475 57.5411C37.6844 58.1866 39.4365 57.4796 40.1434 55.9735C45.2766 44.662 56.4959 37.3772 68.791 37.3772C86.127 37.3772 100.205 51.3628 100.205 68.5759C100.205 85.8813 86.0963 99.9591 68.791 99.9591ZM121.844 49.3034C121.844 49.3341 121.844 49.3341 121.844 49.3649C120.738 57.7255 114.16 64.2726 106.23 65.3177C105.184 53.2378 98.3299 42.7563 88.4324 36.7317C92.7664 29.539 101.496 26.1272 109.365 28.7399C117.848 31.5985 123.197 40.4202 121.844 49.3034Z" fill="white"/>
</svg>
