<svg width="150" height="147" viewBox="0 0 150 147" fill="none" xmlns="http://www.w3.org/2000/svg">
<mask id="mask0_18_708" style="mask-type:luminance" maskUnits="userSpaceOnUse" x="0" y="0" width="150" height="147">
<path d="M150 0H0V146.154H150V0Z" fill="white"/>
</mask>
<g mask="url(#mask0_18_708)">
<path d="M103.398 28.9486C104.648 28.1152 105.723 27.3699 106.827 26.668C114.787 21.6038 123.433 20.5543 132.425 22.835C147.721 26.7152 153.059 42.5927 148.29 54.7812C146.802 58.5888 144.386 62.1086 141.985 65.4688C139.34 69.1706 135.299 71.0405 130.97 72.1937C128.649 72.8117 126.285 73.2668 123.711 73.8469C123.447 74.8437 123.156 75.8738 122.898 76.913C121.524 82.4706 118.475 87.1047 114.806 91.3764C112.05 94.5816 108.34 96.3399 104.33 97.1681C98.8677 98.2953 93.3391 99.1978 87.7974 99.8424C73.1705 101.545 58.4508 101.26 43.7592 101.539C36.953 101.768 30.1505 100.983 23.5756 99.2095C11.6846 95.8374 4.51037 88.0155 1.58856 76.2239C-0.323363 68.7578 -0.113681 60.9065 2.19422 53.5536C6.05063 41.2248 14.6712 33.2495 26.0969 27.9764C27.9756 27.1804 29.4923 25.7155 30.3527 23.8654C36.7329 11.2924 46.8072 2.85333 60.7771 0.677051C74.7282 -1.49667 86.7154 3.29695 95.7827 14.431C98.6831 18.0136 100.921 22.0848 102.391 26.4533C102.665 27.2591 103.025 28.0351 103.398 28.9486ZM48.8507 93.4886C51.7001 93.4886 54.5559 93.6251 57.3969 93.4648C69.2173 92.7963 81.0282 91.9393 92.8532 91.37C96.691 91.2521 100.463 90.3348 103.926 88.6777C111.982 84.729 115.765 78.1917 115.079 69.2931C114.547 62.3944 110.238 57.0816 103.483 55.4579C95.0436 53.4284 87.3571 55.0219 80.8205 60.9348C79.0385 62.5463 77.4711 64.3931 75.7955 66.122C74.0571 67.9168 72.4564 68.3392 70.8512 67.4539C69.3007 66.5989 68.6288 64.8579 69.3128 62.6036C70.327 59.2703 69.7884 56.1291 68.5743 52.9989C67.1673 49.4267 65.168 46.1174 62.661 43.2095C54.9552 34.1332 41.1477 30.1612 30.4041 34.4549C16.1195 40.16 5.9846 52.2114 7.74997 69.8104C9.29869 85.2546 16.7955 90.2424 27.8731 92.6777C28.1937 92.7482 28.5219 92.7893 28.8443 92.8533C35.4662 94.161 42.1584 93.9854 48.8507 93.4886ZM76.9564 53.7576C77.125 53.7242 77.291 53.6754 77.4513 53.6124C77.8256 53.3886 78.2103 53.1759 78.559 52.9169C85.1026 48.0528 92.4891 46.1573 100.555 46.8271C111.425 47.7246 119.352 53.2193 122.693 63.9013C122.907 64.5879 123.224 65.243 123.658 66.3251C126.065 65.3668 128.337 64.6213 130.47 63.5853C138.29 59.7859 141.95 53.4211 141.437 44.7545C141.01 37.5256 136.622 32.0879 129.572 30.4591C121.107 28.5007 113.45 30.198 106.966 36.1576C105.198 37.7833 103.645 39.6405 101.957 41.3572C100.358 42.984 98.7925 43.356 97.2558 42.5572C95.6744 41.7348 94.9392 39.9547 95.6205 37.7458C96.6847 34.2976 96.1385 31.0521 94.8007 27.843C94.3801 26.8341 93.941 25.8301 93.4488 24.8551C84.8186 7.766 64.5878 3.9055 51.7385 11.778C47.0279 14.5958 42.8969 18.2846 39.5655 22.6472C39.1216 23.3604 38.7302 24.1048 38.395 24.8752C58.1629 25.681 70.8545 35.4877 76.9564 53.7576Z" fill="black"/>
<path d="M93.3799 119.723C93.7741 118.453 94.2472 117.21 94.7965 115.999C96.3991 113.034 98.0904 110.116 99.7878 107.203C100.22 106.46 100.667 105.536 101.357 105.178C102.285 104.702 103.336 104.521 104.37 104.659C105.615 104.871 105.9 106.079 105.872 107.235C105.882 107.779 105.789 108.32 105.601 108.83C103.974 112.624 102.332 116.41 100.626 120.169C100.271 120.845 99.7927 121.447 99.2155 121.944C98.0952 123.002 96.6215 123.553 95.349 122.649C94.4273 121.991 93.9818 120.662 93.3799 119.723Z" fill="black"/>
<path d="M35.7873 108.446C35.3949 109.608 35.1463 110.433 34.8385 111.24C33.6302 114.381 32.3788 117.509 31.1846 120.659C30.0063 123.773 28.0629 125.082 25.9076 124.146C24.0821 123.35 23.58 121.253 24.8313 118.436C26.2871 115.16 27.9261 111.962 29.5472 108.762C29.8711 107.951 30.4143 107.246 31.116 106.725C31.9821 106.248 33.2645 105.827 34.0749 106.141C34.862 106.443 35.2764 107.704 35.7873 108.446Z" fill="black"/>
<path d="M57.5415 121.403C58.1229 119.854 58.4883 118.6 59.0505 117.44C60.4254 114.603 61.889 111.806 63.3242 108.997C63.5533 108.505 63.8239 108.033 64.1336 107.587C64.8599 106.621 65.9734 106.067 66.9894 106.648C67.8426 107.238 68.492 108.076 68.8484 109.05C69.0215 109.796 68.9433 110.58 68.6259 111.277C67.4555 114.547 66.2722 117.823 64.9369 121.029C64.5382 122.046 63.8301 122.91 62.9126 123.5C61.9722 124.013 60.5254 124.337 59.6132 123.97C58.701 123.603 58.1998 122.276 57.5415 121.403Z" fill="black"/>
<path d="M123.742 124.544C123.596 125.313 123.403 126.07 123.162 126.813C122.081 129.432 121.08 132.097 119.787 134.61C119.095 135.962 118.102 137.136 116.885 138.043C114.925 139.453 112.874 138.338 112.772 135.907C112.706 134.818 112.912 133.731 113.372 132.743C114.925 129.742 116.65 126.829 118.349 123.905C118.584 123.408 118.984 123.006 119.48 122.767C120.377 122.519 121.492 122.207 122.242 122.539C122.963 122.859 123.334 123.959 123.742 124.544Z" fill="black"/>
<path d="M46.6952 132.148C45.1626 136.704 43.6657 140.782 41.09 144.327C39.8875 145.982 38.1264 146.235 36.7841 145.345C35.5399 144.519 35.1771 143.062 35.7925 141.29C35.9176 140.875 36.0899 140.473 36.3055 140.097C38.2196 137.072 40.1284 134.044 42.0957 131.052C42.7912 129.996 43.8529 129.129 45.0958 129.923C45.8689 130.41 46.2555 131.502 46.6952 132.148Z" fill="black"/>
<path d="M82.3166 133.037C80.5217 136.585 78.8954 140.024 77.0499 143.344C76.7038 143.991 76.1172 144.474 75.4165 144.69C74.716 144.906 73.9588 144.836 73.3089 144.498C71.8345 143.844 71.8262 142.418 72.073 141.101C72.255 140.025 72.6024 138.985 73.1031 138.016C74.3569 135.716 75.689 133.452 77.1172 131.257C77.9127 130.034 79.3018 129.507 80.5563 130.279C81.3249 130.753 81.6518 131.94 82.3166 133.037Z" fill="black"/>
<path d="M138.316 85.5291C136.649 89.5035 135.232 93.2855 133.465 96.9009C133.304 97.2567 133.069 97.574 132.775 97.8314C132.481 98.0883 132.134 98.2788 131.759 98.3901C131.385 98.5014 130.991 98.5307 130.605 98.476C130.217 98.4204 129.847 98.2836 129.518 98.0727C129.192 97.9154 128.901 97.6927 128.665 97.4201C128.428 97.147 128.248 96.8284 128.139 96.4835C128.028 96.1394 127.99 95.7758 128.025 95.4156C128.061 95.056 128.169 94.7073 128.344 94.3906C130.074 90.8701 132.022 87.4484 134.013 84.0637C134.579 83.1022 135.771 82.4701 136.846 83.2304C137.528 83.7144 137.831 84.7323 138.316 85.5291Z" fill="black"/>
</g>
</svg>
