<svg width="150" height="150" viewBox="0 0 150 150" fill="none" xmlns="http://www.w3.org/2000/svg">
<mask id="mask0_21_763" style="mask-type:luminance" maskUnits="userSpaceOnUse" x="0" y="0" width="150" height="150">
<path d="M150 0H0V149.362H150V0Z" fill="white"/>
</mask>
<g mask="url(#mask0_21_763)">
<path d="M64.3197 72.2904C60.873 68.804 58.0696 65.9317 55.2241 63.099C53.2906 61.1752 51.5973 58.594 49.2516 57.6186C46.9179 56.6491 43.9012 57.3534 41.1859 57.2615C36.8193 57.114 32.4544 56.916 28.0885 56.7372C26.6089 56.6772 25.1806 56.473 24.7733 54.7151C24.4267 53.217 25.441 51.8138 27.4958 51.2151C28.8617 50.8582 30.2616 50.6468 31.6721 50.5849C34.8221 50.3634 37.9786 50.2383 41.5766 50.0513C41.1051 49.3596 40.5964 48.6938 40.0535 48.0566C37.8431 45.7875 35.5318 43.612 33.3941 41.2765C32.8235 40.6229 32.1273 40.0907 31.3467 39.712C30.5661 39.3333 29.7174 39.1159 28.8509 39.0724C23.4075 38.6511 17.9634 38.2089 12.5347 37.6319C10.2657 37.3258 8.01566 36.892 5.79541 36.3329C4.28137 35.9958 3.20182 35.1094 3.18331 33.4249C3.16799 32.0149 4.39289 30.9825 6.36141 30.7789C7.33675 30.7261 8.31482 30.7518 9.28612 30.8555C13.9159 31.1301 18.5455 31.4116 23.1744 31.7002L23.4802 31.0325C21.7842 29.2377 20.0972 27.4367 18.3903 25.65C17.184 24.3849 15.9181 23.1753 14.7519 21.8764C12.6264 19.5146 12.3175 17.3238 13.8137 15.7932C15.4733 14.0947 17.5707 14.3793 20.1085 16.7837C22.0873 18.6615 23.9657 20.6513 25.908 22.5714C26.5049 23.1605 27.1676 23.6824 28.2259 24.6072C28.0619 21.6972 27.8782 19.3283 27.8137 16.9557C27.7477 15.5415 27.8169 14.1237 28.0209 12.7227C28.1083 11.9014 28.4632 11.1319 29.031 10.5322C29.5988 9.93243 30.3479 9.53606 31.1631 9.40393C32.6855 9.25521 34.2138 10.2119 34.7161 12.1759C35.2459 14.5103 35.6198 16.877 35.8357 19.2608C36.37 23.8112 36.7968 28.374 37.3304 32.9245C37.3783 33.6791 37.6501 34.4021 38.1112 35.0014C41.0206 38.0652 44.0198 41.047 47.4136 44.4849C47.7621 40.9972 48.0157 38.1296 48.3483 35.2719C48.4681 33.8606 48.7199 32.4635 49.1007 31.0993C49.3446 30.309 49.8429 29.6214 50.5179 29.1432C51.1927 28.665 52.0064 28.4234 52.8329 28.4551C53.6628 28.5061 54.4487 28.8453 55.0549 29.4144C55.6609 29.9836 56.0492 30.7467 56.1521 31.5718C56.3027 33.1987 56.2832 34.837 56.0946 36.46C55.7818 40.4857 55.4562 44.513 55.003 48.5241C54.8324 49.5376 54.9286 50.578 55.2823 51.5429C55.636 52.5079 56.235 53.3638 57.0202 54.0269C60.7134 57.431 64.2157 61.0419 67.8074 64.5587C68.3334 65.0732 68.9123 65.5346 69.811 66.3217C70.328 52.8613 70.8278 39.8387 71.3385 26.5327C65.8299 21.3848 60.259 16.1802 54.6899 10.9723C53.9724 10.3008 53.2249 9.65536 52.5649 8.92962C50.7196 6.90493 50.3871 4.7105 51.6714 3.39497C52.9173 2.11836 54.8856 2.2088 56.9959 3.88242C60.5021 6.66473 63.9323 9.5436 67.3663 12.4153C68.68 13.5145 69.9151 14.7066 71.7707 16.3854C71.8044 13.7983 71.7381 11.8906 71.8773 9.99798C72.0521 7.60948 72.3074 5.2181 72.6981 2.8564C72.9451 1.35767 73.8068 0.199722 75.5442 0.22653C77.0123 0.24951 77.906 1.42958 78.0802 3.47724C78.1441 4.23746 78.0943 5.00903 78.1313 5.76989C78.2845 8.92821 78.4504 12.0893 78.6419 15.7314C79.4085 15.207 80.1426 14.6367 80.8415 14.0248C84.0649 10.7605 87.2481 7.45667 90.4632 4.18412C91.1876 3.37074 91.9958 2.63595 92.8734 1.99121C93.6119 1.51208 94.4877 1.28918 95.3654 1.35664C96.2437 1.42411 97.075 1.7782 97.7314 2.36458C98.3752 2.96914 98.7915 3.77732 98.9082 4.65287C99.0258 5.52841 98.8381 6.41784 98.3752 7.17052C97.9502 7.9315 97.4153 8.62521 96.7882 9.22942C91.6224 14.256 86.4955 19.3269 81.2034 24.2182C79.4748 25.814 78.6049 27.3719 78.5711 29.8127C78.4179 40.9517 78.0368 52.0892 77.7464 63.225C77.7158 64.4118 77.7425 65.601 77.7425 67.17C78.3004 66.8745 78.8334 66.5323 79.3351 66.1487C83.267 62.3563 87.1497 58.5133 91.113 54.7549C91.6875 54.258 92.142 53.638 92.4433 52.9411C92.7451 52.2442 92.8856 51.4877 92.8549 50.7288C92.7796 45.9269 92.8001 41.123 92.8153 36.3191C92.825 33.3752 93.5048 32.1797 95.2033 31.9327C96.8405 31.6946 98.0047 32.7761 98.6436 35.5705C99.3672 38.7403 99.8709 41.9599 100.518 45.4081C101.22 44.8693 101.842 44.4722 102.368 43.973C105.144 41.3433 107.864 38.6545 110.671 36.0586C111.63 35.1812 112.202 33.9606 112.267 32.6626C113.032 25.6107 113.945 18.575 114.837 11.5351C114.934 10.6664 115.147 9.81417 115.47 9.00193C115.927 7.91235 116.855 7.10746 118.038 7.45725C118.481 7.5858 118.895 7.80276 119.254 8.09433C119.612 8.38591 119.909 8.74623 120.125 9.15461C120.515 10.3974 120.669 11.7025 120.578 13.0019C120.455 17.4661 120.227 21.9271 120.019 26.8656C121.078 25.8915 121.866 25.1997 122.617 24.4695C125.753 21.4254 128.842 18.3351 132.017 15.3332C133.962 13.4936 135.733 13.2265 136.889 14.3844C138.056 15.5551 137.911 17.4068 136.207 19.3575C134.269 21.5755 132.145 23.634 130.111 25.7653C129.38 26.5313 128.677 27.3245 127.441 28.6732C130.779 28.3783 133.369 28.1873 135.949 27.9072C138.046 27.6806 140.089 27.5109 141.873 28.9924C144.193 30.9182 144.159 33.1783 141.727 34.9534C139.672 36.4534 137.246 36.4851 134.848 36.6856C129.631 37.1241 124.415 37.5951 119.209 38.128C118.348 38.1817 117.522 38.4927 116.839 39.0213C113.171 42.3381 109.72 45.8871 106.505 49.6455C109.266 49.2549 112.023 48.8107 114.792 48.4961C115.966 48.3288 117.16 48.3557 118.325 48.5759C119.135 48.7532 119.861 49.1957 120.39 49.8331C120.92 50.4704 121.221 51.2666 121.247 52.0946C121.331 52.9164 121.142 53.7427 120.709 54.4465C120.277 55.1502 119.625 55.6922 118.853 55.988C118.05 56.3209 117.2 56.5266 116.334 56.5977C110.467 57.1197 104.594 57.5692 98.7282 58.108C97.8715 58.1269 97.0419 58.4129 96.354 58.9258C92.2383 62.9553 88.217 67.0813 83.7796 71.571C85.2873 71.6419 86.2154 71.7223 87.144 71.7242C98.0679 71.7498 108.992 71.7198 119.915 71.8193C120.77 71.8673 121.626 71.7287 122.423 71.4146C123.219 71.1 123.939 70.6168 124.531 69.9977C128.432 66.178 132.48 62.5096 136.488 58.8004C137.892 57.4996 139.48 56.5778 141.503 56.9947C145.12 57.7396 146.351 61.7238 143.744 64.6289C142.22 66.3268 140.381 67.7406 138.708 69.3077C137.942 70.0251 137.233 70.8038 136.071 71.9885C138.789 71.9885 140.918 71.9668 143.047 71.9961C144.46 72.0153 145.879 72.0466 147.285 72.1838C147.939 72.2707 148.541 72.5802 148.992 73.0608C149.442 73.5409 149.712 74.1619 149.759 74.8193C149.804 75.4762 149.621 76.1291 149.242 76.6666C148.861 77.2047 148.307 77.594 147.673 77.7708C146.414 78.1066 145.121 78.2981 143.819 78.3408C140.775 78.4213 137.727 78.3664 134.081 78.3664C134.554 79.1081 135.069 79.8223 135.625 80.5053C138.037 83.0343 140.535 85.484 142.891 88.064C143.882 89.0745 144.662 90.2726 145.184 91.5881C145.482 92.4537 145.277 93.9754 144.674 94.5403C144.233 94.8958 143.723 95.1524 143.174 95.2941C142.627 95.4351 142.055 95.4588 141.498 95.3604C140.156 94.9194 138.919 94.2039 137.867 93.2592C132.305 88.8454 126.959 84.1947 122.45 78.4902H82.5004C82.8911 79.1406 83.3309 79.7598 83.8166 80.342C86.2007 82.7477 88.7456 85.0047 90.9956 87.5273C91.7404 88.4522 92.7228 89.1568 93.8379 89.566C94.9524 89.9751 96.1582 90.0728 97.3239 89.8488C100.691 89.4952 104.076 89.3534 107.46 89.4243C108.875 89.4447 110.275 89.7096 111.599 90.2081C112.275 90.4526 112.863 90.8962 113.282 91.4809C113.702 92.0656 113.935 92.7639 113.949 93.4833C114.018 94.202 113.847 94.9239 113.465 95.5367C113.081 96.1488 112.507 96.6173 111.83 96.8694C110.521 97.3791 109.142 97.6913 107.741 97.7934C106.039 97.947 104.311 97.8294 102.164 97.8294C102.425 98.3536 102.729 98.8544 103.076 99.3261C107.364 103.69 111.701 108.007 115.948 112.41C116.43 112.992 117.068 113.425 117.787 113.656C118.505 113.889 119.276 113.91 120.006 113.72C126.265 112.467 132.623 112.777 138.954 112.762C139.718 112.741 140.481 112.836 141.216 113.047C142.504 113.46 143.322 114.538 143.047 115.787C142.85 116.689 142.021 117.899 141.224 118.135C139.328 118.634 137.381 118.909 135.421 118.952C132.914 119.081 130.395 118.945 127.884 119.021C126.519 119.062 125.16 119.307 123.239 119.524C125.383 121.758 127.139 123.531 128.823 125.367C130.445 127.137 132.028 128.946 133.553 130.8C134.15 131.577 134.66 132.417 135.071 133.306C135.404 133.887 135.502 134.572 135.344 135.223C135.187 135.872 134.787 136.437 134.226 136.802C133.712 137.227 133.058 137.446 132.392 137.415C131.726 137.383 131.096 137.104 130.623 136.633C129.793 135.926 129.039 135.134 128.276 134.355C125.081 131.085 121.893 127.805 118.156 123.966C117.846 128.37 117.646 131.979 117.309 135.576C117.181 136.962 117.012 138.489 116.324 139.626C115.813 140.476 114.486 141.094 113.427 141.285C112.817 141.379 112.195 141.239 111.684 140.893C111.174 140.547 110.812 140.023 110.671 139.422C110.232 138.085 110.002 136.686 109.985 135.278C110.109 130.149 110.312 125.018 110.657 119.896C110.764 119.098 110.674 118.286 110.393 117.532C110.112 116.777 109.65 116.103 109.047 115.569C104.62 111.37 100.302 107.058 95.4254 102.282C95.2638 104.028 95.17 105.165 95.0519 106.303C94.8158 108.581 94.6811 110.877 94.2911 113.128C93.9037 115.366 92.8281 116.319 91.1876 116.304C89.442 116.29 88.3415 115.18 88.2107 112.713C87.9732 108.245 87.7996 103.761 87.8877 99.2901C87.9515 96.2503 87.2493 93.8643 84.7651 91.8709C82.3396 89.926 80.2377 87.5751 77.5223 84.9454C77.4297 86.4357 77.3346 87.2509 77.3346 88.0667C77.3346 99.4282 77.3819 110.791 77.3283 122.152C77.2663 122.964 77.3953 123.78 77.7043 124.534C78.0132 125.287 78.4939 125.958 79.1079 126.493C83.0653 129.921 86.9864 133.398 90.9694 136.801C92.7113 138.289 94.6383 139.563 96.3567 141.077C98.2274 142.725 98.5182 144.483 97.4046 145.974C96.3675 147.364 94.3888 147.633 92.387 146.25C88.3511 143.455 84.446 140.471 80.4872 137.564C79.7213 137.003 78.9649 136.437 77.7923 135.568C77.7923 137.111 77.7783 138.152 77.7923 139.191C77.8204 140.937 77.9793 142.688 77.8817 144.425C77.6946 147.744 76.3906 149.364 74.1796 149.276C72.0923 149.193 70.9721 147.626 70.8145 144.47C70.7443 143.053 70.7914 141.63 70.7366 140.212C70.704 139.361 70.5783 138.514 70.4538 137.259C69.5807 138.018 68.9219 138.518 68.3474 139.103C65.8178 141.669 63.3565 144.307 60.7733 146.818C59.9052 147.64 58.8939 148.296 57.7895 148.753C57.1188 148.986 56.3942 149.015 55.7071 148.837C55.02 148.659 54.4008 148.282 53.9272 147.754C53.4536 147.224 53.1468 146.568 53.0451 145.865C52.9436 145.163 53.0517 144.446 53.3563 143.805C53.9849 142.794 54.7231 141.855 55.5573 141.005C60.1657 135.899 64.7729 130.787 69.4408 125.734C70.5559 124.527 70.4577 123.157 70.434 121.747C70.2725 112.136 70.1072 102.526 69.9393 92.9151C69.9036 90.7405 69.9343 88.5645 69.9343 85.8817C68.9404 86.6516 68.244 87.0945 67.6619 87.6588C65.3844 89.8609 63.1893 92.1499 60.869 94.3054C60.3007 94.809 59.8446 95.4269 59.5301 96.1181C59.2155 96.8094 59.0495 97.559 59.0429 98.3185C58.8515 102.57 58.6011 106.824 58.2348 111.064C58.126 112.465 57.7606 113.834 57.1568 115.103C56.85 115.758 56.3306 116.288 55.6832 116.609C55.0357 116.929 54.2985 117.02 53.5925 116.867C52.9303 116.803 52.3065 116.527 51.814 116.08C51.3216 115.633 50.9867 115.039 50.8594 114.385C50.6097 113.005 50.5237 111.6 50.6038 110.2C50.6952 108.265 50.987 106.339 51.2487 103.845C50.2128 104.675 49.6132 105.085 49.0995 105.583C47.0569 107.557 45.1834 109.732 42.9839 111.51C41.4835 112.68 40.2373 114.144 39.3211 115.812C38.4049 117.48 37.8381 119.318 37.6549 121.212C37.0894 125.755 36.1943 130.26 35.3869 134.77C35.2039 135.843 34.8869 136.888 34.4435 137.881C34.2457 138.405 33.8508 138.832 33.343 139.069C32.8352 139.305 32.2548 139.334 31.7257 139.15C31.2892 138.989 30.89 138.742 30.5526 138.422C30.2152 138.102 29.9469 137.717 29.7641 137.29C29.4799 135.906 29.4003 134.489 29.5278 133.083C29.6223 130.268 29.8216 127.455 30.0106 124.051C28.8061 124.977 28.0319 125.513 27.324 126.129C25.0217 128.142 22.7689 130.215 20.443 132.199C19.708 132.847 18.8694 133.365 17.9621 133.735C17.3572 134.011 16.681 134.092 16.0284 133.963C15.3759 133.836 14.7796 133.506 14.3236 133.023C13.7933 132.535 13.4385 131.886 13.3141 131.177C13.1898 130.467 13.3027 129.736 13.6355 129.097C14.2027 128.047 14.9385 127.098 15.8134 126.288C18.1752 124.016 20.6301 121.844 23.0314 119.614C23.5586 119.124 24.0158 118.559 24.9414 117.554C21.9605 117.554 19.589 117.618 17.2228 117.528C16.032 117.47 14.8518 117.278 13.7046 116.953C13.0064 116.767 12.3933 116.347 11.9687 115.763C11.5441 115.178 11.3338 114.465 11.3734 113.744C11.2935 112.97 11.4952 112.191 11.9412 111.554C12.3871 110.917 13.0478 110.46 13.8022 110.271C14.8408 109.971 15.916 109.819 16.9969 109.818C21.5849 109.866 26.1736 109.952 30.758 110.137C31.5693 110.203 32.3852 110.087 33.1463 109.798C33.9074 109.509 34.5946 109.054 35.1572 108.466C38.9289 104.717 42.7854 101.054 47.1425 96.842C44.1712 96.842 41.9409 96.8611 39.7119 96.8355C38.4055 96.872 37.0981 96.8094 35.8011 96.6479C33.9558 96.3409 33.1605 95.3911 33.1791 93.8592C33.1544 93.5286 33.1958 93.1967 33.3005 92.882C33.4055 92.5679 33.5715 92.2775 33.7896 92.0279C34.0077 91.779 34.2733 91.5754 34.5709 91.4292C34.8685 91.2831 35.192 91.1975 35.5228 91.1777C38.6549 90.7762 41.7967 90.4118 44.9455 90.1985C47.4496 90.0281 49.9752 90.1902 52.4773 90.023C53.5484 90.0102 54.5892 89.6649 55.4562 89.0363C58.9931 85.8211 62.387 82.4483 66.234 78.7436C64.9395 78.6421 64.1327 78.5145 63.3284 78.526C51.7502 78.697 40.1728 78.9294 28.594 79.0277C27.7348 78.9798 26.8781 79.1598 26.111 79.5504C25.3438 79.9404 24.6938 80.527 24.2263 81.2496C21.8646 84.5234 19.4359 87.766 16.817 90.8362C15.3885 92.4671 13.7361 93.8873 11.9091 95.0548C10.6325 95.8883 8.88802 96.0914 7.64141 94.8275C7.04805 94.2435 6.66488 93.4788 6.55216 92.6534C6.43943 91.8282 6.60348 90.9894 7.01844 90.2675C7.69612 89.0324 8.5067 87.8752 9.43575 86.8162C11.5217 84.3141 13.6829 81.8758 16.2584 78.8975C13.1231 78.7283 10.5774 78.6326 8.03506 78.4385C6.19115 78.3153 4.35507 78.097 2.53379 77.7837C1.97681 77.7326 1.46128 77.4664 1.09669 77.0426C0.732072 76.6181 0.546933 76.0685 0.579933 75.5106C0.622702 74.1964 1.53331 73.5434 2.69118 73.387C3.87921 73.2759 5.07327 73.2421 6.26572 73.2849C9.14391 73.3603 12.0231 73.1776 14.8687 72.7398C13.3285 71.4395 11.8049 70.1151 10.2423 68.8461C8.46208 67.4011 6.59448 66.06 4.85386 64.5696C3.05194 63.0267 2.63498 61.3729 3.51711 60.0191C4.44328 58.5982 6.43796 58.263 8.48947 59.5454C11.7263 61.5681 14.8415 63.7869 17.9876 65.9527C21.2111 68.1715 24.3928 70.4509 27.6366 72.6383C28.1987 72.9587 28.8413 73.1113 29.4876 73.0762C40.8462 72.8426 52.1966 72.5745 64.3197 72.2904Z" fill="white"/>
</g>
</svg>
