<svg width="150" height="148" viewBox="0 0 150 148" fill="none" xmlns="http://www.w3.org/2000/svg">
<mask id="mask0_21_741" style="mask-type:luminance" maskUnits="userSpaceOnUse" x="0" y="0" width="150" height="148">
<path d="M150 0H0V147.531H150V0Z" fill="white"/>
</mask>
<g mask="url(#mask0_21_741)">
<path d="M102.332 137C101.52 135.842 101.125 134.711 101.581 133.201C102.721 129.425 103.655 125.589 104.656 121.773C104.828 121.115 104.923 120.44 105.104 119.52C104.371 119.558 103.811 119.564 103.256 119.619C102.058 119.813 100.85 119.935 99.6371 119.986C97.5283 119.942 96.5142 118.403 97.2261 116.445C97.5153 115.726 97.8743 115.037 98.2979 114.387C102.142 107.926 106.591 101.836 111.583 96.1994C112.577 95.0959 113.654 94.1202 115.207 94C117.296 95.2238 117.406 97.0541 116.931 99.0031C116.406 101.155 115.757 103.279 115.094 105.673C117.01 105.305 118.781 104.998 120.535 104.615C121.583 104.386 122.678 104.073 123.444 105.033C124.298 106.102 124.07 107.313 123.421 108.425C122.028 110.81 120.609 113.18 119.192 115.55C116.359 120.288 113.551 125.041 110.669 129.75C109.515 131.663 108.25 133.507 106.877 135.272C106.287 136.021 105.26 136.436 104.431 136.999L102.332 137Z" fill="white"/>
<path d="M67.3321 139C66.5196 137.842 66.1246 136.711 66.5808 135.201C67.7209 131.425 68.6551 127.589 69.6557 123.773C69.8283 123.115 69.9231 122.44 70.1038 121.52C69.371 121.558 68.8111 121.564 68.2559 121.619C67.058 121.813 65.8497 121.935 64.6371 121.986C62.5283 121.942 61.5142 120.403 62.2261 118.445C62.5153 117.726 62.8743 117.037 63.2979 116.387C67.1424 109.926 71.5905 103.836 76.5834 98.1994C77.5765 97.0959 78.6544 96.1202 80.2069 96C82.2958 97.2238 82.406 99.0541 81.9309 101.003C81.4062 103.155 80.7571 105.279 80.0936 107.673C82.01 107.305 83.781 106.998 85.5346 106.615C86.5828 106.386 87.6781 106.073 88.4436 107.033C89.2979 108.102 89.0703 109.313 88.4206 110.425C87.0279 112.81 85.6091 115.18 84.1918 117.55C81.3588 122.288 78.5508 127.041 75.6688 131.75C74.5154 133.663 73.2497 135.507 71.8774 137.272C71.2873 138.021 70.2595 138.436 69.4307 138.999L67.3321 139Z" fill="white"/>
<path d="M32.3321 138C31.5196 136.842 31.1246 135.711 31.5808 134.201C32.7209 130.425 33.6551 126.589 34.6557 122.773C34.8283 122.115 34.9231 121.44 35.1038 120.52C34.371 120.558 33.8111 120.564 33.2559 120.619C32.058 120.813 30.8497 120.935 29.6371 120.986C27.5283 120.942 26.5142 119.403 27.2261 117.445C27.5153 116.726 27.8743 116.037 28.2979 115.387C32.1424 108.926 36.5905 102.836 41.5834 97.1994C42.5765 96.0959 43.6544 95.1202 45.2069 95C47.2958 96.2238 47.406 98.0541 46.9309 100.003C46.4062 102.155 45.7571 104.279 45.0936 106.673C47.01 106.305 48.781 105.998 50.5346 105.615C51.5828 105.386 52.6781 105.073 53.4436 106.033C54.2979 107.102 54.0703 108.313 53.4206 109.425C52.0279 111.81 50.6091 114.18 49.1918 116.55C46.3588 121.288 43.5508 126.041 40.6688 130.75C39.5154 132.663 38.2497 134.507 36.8774 136.272C36.2873 137.021 35.2595 137.436 34.4307 137.999L32.3321 138Z" fill="white"/>
<path d="M93.2419 35.1305C95.5716 33.6373 97.5363 32.2117 99.6486 31.0568C109.738 25.5264 120.324 24.7742 131.154 28.3724C145.352 33.0903 150.98 47.2813 149.745 58.4789C148.681 68.1307 143.9 75.9085 137 82.4906C134.512 84.8642 131.281 86.0215 128.049 87.0332C121.175 89.1863 114.031 89.8728 106.923 90.6511C90.0096 92.503 73.0041 92.4702 56.017 92.7406C47.8763 92.8702 39.7576 92.7406 31.8082 90.7036C29.4669 90.103 27.1344 89.4234 24.8652 88.5949C14.8875 84.953 7.88489 78.2314 4.10155 68.2894C-1.84845 52.6508 -0.994111 37.3897 8.08735 23.2779C15.6596 11.5107 26.5385 3.33055 40.5231 0.948449C58.2546 -2.07192 73.1585 3.7647 84.5591 17.8382C88.6504 22.882 91.3671 28.675 93.2419 35.1305ZM56.7781 83.4394C61.8399 83.2542 66.9128 83.169 71.9708 82.8734C85.669 82.0709 99.3561 81.0481 113.062 80.4011C118.12 80.1653 123.059 78.785 127.506 76.3647C135.407 72.156 139.296 65.4666 139.657 56.6951C140.051 47.1889 134.904 39.6582 126.379 37.1162C121.28 35.6447 115.889 35.5008 110.719 36.6979C105.071 37.9152 100.454 40.996 96.4274 45.0041C94.6376 46.7874 93.0282 48.7547 91.2338 50.5356C89.9874 51.7701 88.4985 52.4143 86.6332 51.7786C84.7869 51.1496 83.9603 49.7524 83.6646 48.0309C83.5923 47.1986 83.7233 46.3619 84.0455 45.5912C85.3041 42.0184 84.7862 38.5537 83.5918 35.092C81.8757 30.0961 79.1529 25.5057 75.5924 21.6039C66.3856 11.4755 54.78 8.21208 41.4707 9.99911C25.5287 14.8596 14.2554 24.4513 10.1931 41.1098C8.88964 46.67 8.79916 52.446 9.92814 58.0443C12.0762 69.3622 17.8292 77.6221 29.4927 80.8215C30.8113 81.1839 32.1275 81.5622 33.4602 81.8709C41.1491 83.6246 48.9534 83.6407 56.7781 83.4394Z" fill="white"/>
</g>
</svg>
